<?xml version="1.0" encoding="UTF-8"?>
<svg id="Livello_1" data-name="Livello 1" xmlns="http://www.w3.org/2000/svg" viewBox="0 0 16.24 16.24">
  <path d="M4.13,2.38l1.18.38-2.57,2.29c-.42-.36-1.04-.38-1.47,0-.46.41-.5,1.13-.09,1.59.41.46,1.13.5,1.59.09.42-.38.48-1,.17-1.46l2.57-2.29.25,1.21,1.41-2.9-3.04,1.08Z"/>
  <path d="M5.75,12.04l-.25,1.21-2.57-2.29c.31-.46.26-1.08-.17-1.46-.46-.41-1.18-.37-1.59.09-.41.46-.37,1.18.09,1.59.42.38,1.05.36,1.47,0l2.57,2.29-1.17.38,3.04,1.08-1.41-2.9Z"/>
  <path d="M10.96,14.64c.42-.38.48-1,.17-1.46l2.57-2.29.25,1.21,1.41-2.9-3.04,1.08,1.17.38-2.57,2.29c-.42-.36-1.04-.38-1.47,0-.46.41-.5,1.13-.09,1.59s1.13.5,1.59.09Z"/>
  <path d="M9.36,1.68c-.41.46-.37,1.18.09,1.59.42.38,1.05.36,1.47,0l2.57,2.29-1.17.38,3.04,1.08-1.41-2.9-.25,1.21-2.57-2.29c.31-.46.26-1.08-.17-1.46-.46-.41-1.18-.37-1.59.09Z"/>
  <path d="M5.06,9.25c.57,0,1.02-.43,1.1-.98h4.46l-.62,1.07,2.98-1.22-2.98-1.22.62,1.07h-4.46c-.08-.55-.53-.98-1.1-.98-.62,0-1.13.5-1.13,1.13s.5,1.13,1.13,1.13Z"/>
</svg>