<svg width="1440" height="812" viewBox="0 0 1440 812" fill="none" xmlns="http://www.w3.org/2000/svg">
<rect width="1440" height="812" fill="white"/>
<g style="mix-blend-mode:difference">
<path d="M0 24H1440" stroke="white"/>
</g>
<g style="mix-blend-mode:difference">
<path d="M19.3623 17H12.7451V15.8789H15.5V8.31836H12.7451V7.19727H19.3623V8.31836H16.6211V15.8789H19.3623V17ZM21.5605 17H20.4462V7.19727H24.6982C26.0107 7.19727 27.0634 8.26367 27.0634 9.56934V10.2939C27.0634 11.6133 26.0175 12.6592 24.6982 12.6592H22.9892L27.0361 17H25.6073L21.5605 12.6592V17ZM21.5605 8.31836V11.5381H24.6982C25.3818 11.5381 25.9423 10.9775 25.9423 10.2939V9.56934C25.9423 8.88574 25.3818 8.31836 24.6982 8.31836H21.5605ZM34.7645 17H28.1473V7.19727H34.7645V8.31836H29.2616V11.5381H34.7645V12.6592H29.2616V15.8789H34.7645V17ZM36.9627 17H35.8484V7.19727H36.9627L41.3445 14.7578V7.19727H42.4656V17H41.3445L36.9627 9.42578V17ZM50.1667 17H43.5495V7.19727H50.1667V8.31836H44.6637V11.5381H50.1667V12.6592H44.6637V15.8789H50.1667V17ZM58.9517 14.6348V9.54883C58.9517 8.24316 60.0112 7.19727 61.3306 7.19727H63.2036C64.523 7.19727 65.5689 8.25 65.5689 9.56934H64.4478C64.4478 8.88574 63.8872 8.31836 63.2036 8.31836H61.3306C60.647 8.31836 60.0659 8.88574 60.0659 9.54883V14.6348C60.0659 15.3184 60.647 15.8789 61.3306 15.8789H63.2036C63.8872 15.8789 64.4478 15.3115 64.4478 14.6211V12.6592H62.2671V11.5381H65.5689V14.6211C65.5689 15.9404 64.523 17 63.2036 17H61.3306C60.0181 17 58.9517 15.9404 58.9517 14.6348ZM67.8422 17H66.6528L69.4077 7.19727H70.5288L73.27 17H72.0942L71.6635 15.4619H68.2592L67.8422 17ZM69.9682 9.30273L68.5668 14.3408H71.3559L69.9682 9.30273ZM75.4681 17H74.3539V7.19727H78.6058C79.9183 7.19727 80.9711 8.26367 80.9711 9.56934V10.2939C80.9711 11.6133 79.9252 12.6592 78.6058 12.6592H76.8968L80.9437 17H79.515L75.4681 12.6592V17ZM75.4681 8.31836V11.5381H78.6058C79.2894 11.5381 79.85 10.9775 79.85 10.2939V9.56934C79.85 8.88574 79.2894 8.31836 78.6058 8.31836H75.4681ZM86.3069 17H82.055V7.19727H86.3069C87.6194 7.19727 88.6721 8.24316 88.6721 9.54883V10.2803C88.6721 10.9434 88.3919 11.5518 87.8313 12.0986C88.3919 12.6592 88.6721 13.2676 88.6721 13.917V14.6348C88.6721 15.9541 87.6263 17 86.3069 17ZM83.1692 8.31836V11.5381H86.3069C86.9905 11.5381 87.5511 10.9707 87.5511 10.2803V9.54883C87.5511 8.87207 86.9905 8.31836 86.3069 8.31836H83.1692ZM83.1692 12.6592V15.8789H86.3069C86.9905 15.8789 87.5511 15.3184 87.5511 14.6348V13.917C87.5511 13.2334 86.9905 12.6592 86.3069 12.6592H83.1692ZM90.9455 17H89.7561L92.5109 7.19727H93.632L96.3732 17H95.1975L94.7668 15.4619H91.3625L90.9455 17ZM93.0715 9.30273L91.6701 14.3408H94.4592L93.0715 9.30273ZM98.5714 11.5381H97.4571V7.19727H104.074V11.5381H102.953V8.31836H101.333V17H100.212V8.31836H98.5714V11.5381ZM111.775 17H105.158V15.8789H107.913V8.31836H105.158V7.19727H111.775V8.31836H109.034V15.8789H111.775V17Z" fill="white"/>
</g>
<g style="mix-blend-mode:difference">
<path d="M251.935 17H250.745L253.5 7.19727H254.621L257.362 17H256.187L255.756 15.4619H252.352L251.935 17ZM254.061 9.30273L252.659 14.3408H255.448L254.061 9.30273ZM259.56 17H258.446V7.19727H262.698C264.011 7.19727 265.063 8.26367 265.063 9.56934V10.2939C265.063 11.6133 264.017 12.6592 262.698 12.6592H260.989L265.036 17H263.607L259.56 12.6592V17ZM259.56 8.31836V11.5381H262.698C263.382 11.5381 263.942 10.9775 263.942 10.2939V9.56934C263.942 8.88574 263.382 8.31836 262.698 8.31836H259.56ZM266.147 14.6348V9.54883C266.147 8.24316 267.207 7.19727 268.526 7.19727H270.399C271.719 7.19727 272.764 8.25 272.764 9.56934H271.643C271.643 8.88574 271.083 8.31836 270.399 8.31836H268.526C267.843 8.31836 267.262 8.88574 267.262 9.54883V14.6348C267.262 15.2705 267.849 15.8789 268.526 15.8789H270.399C271.035 15.8789 271.643 15.2979 271.643 14.6211H272.764C272.764 15.9404 271.719 17 270.399 17H268.526C267.214 17 266.147 15.9404 266.147 14.6348ZM274.963 17H273.848V7.19727H274.963V11.5381H279.344V7.19727H280.466V17H279.344V12.6592H274.963V17ZM288.167 17H281.549V15.8789H284.304V8.31836H281.549V7.19727H288.167V8.31836H285.425V15.8789H288.167V17ZM292.005 17L289.251 7.19727H290.44L292.566 14.9014L294.692 7.19727H295.868L293.127 17H292.005ZM303.569 17H296.952V7.19727H303.569V8.31836H298.066V11.5381H303.569V12.6592H298.066V15.8789H303.569V17Z" fill="white"/>
</g>
<g style="mix-blend-mode:difference">
<path d="M489.935 17H488.745L491.5 7.19727H492.621L495.362 17H494.187L493.756 15.4619H490.352L489.935 17ZM492.061 9.30273L490.659 14.3408H493.448L492.061 9.30273ZM500.698 17H496.446V7.19727H500.698C502.011 7.19727 503.063 8.24316 503.063 9.54883V10.2803C503.063 10.9434 502.783 11.5518 502.223 12.0986C502.783 12.6592 503.063 13.2676 503.063 13.917V14.6348C503.063 15.9541 502.017 17 500.698 17ZM497.56 8.31836V11.5381H500.698C501.382 11.5381 501.942 10.9707 501.942 10.2803V9.54883C501.942 8.87207 501.382 8.31836 500.698 8.31836H497.56ZM497.56 12.6592V15.8789H500.698C501.382 15.8789 501.942 15.3184 501.942 14.6348V13.917C501.942 13.2334 501.382 12.6592 500.698 12.6592H497.56ZM504.147 14.6211V9.54883C504.147 8.25684 505.207 7.19727 506.513 7.19727H508.399C509.712 7.19727 510.764 8.24316 510.764 9.54883V14.6211C510.764 15.9404 509.719 17 508.399 17H506.513C505.207 17 504.147 15.9336 504.147 14.6211ZM505.262 9.54883V14.6211C505.262 15.3115 505.836 15.8789 506.513 15.8789H508.399C509.083 15.8789 509.643 15.3115 509.643 14.6211V9.54883C509.643 8.87207 509.083 8.31836 508.399 8.31836H506.513C505.836 8.31836 505.262 8.88574 505.262 9.54883ZM511.848 14.6211V7.19727H512.963V14.6211C512.963 15.3115 513.537 15.8789 514.214 15.8789H516.1C516.784 15.8789 517.344 15.3115 517.344 14.6211V7.19727H518.466V14.6211C518.466 15.9404 517.42 17 516.1 17H514.214C512.908 17 511.848 15.9336 511.848 14.6211ZM520.664 11.5381H519.549V7.19727H526.167V11.5381H525.046V8.31836H523.425V17H522.304V8.31836H520.664V11.5381Z" fill="white"/>
</g>
</svg>
