<?xml version="1.0" encoding="UTF-8"?>
<svg id="Layer_1" xmlns="http://www.w3.org/2000/svg" version="1.1" viewBox="0 0 5650 5800">
  <!-- Generator: Adobe Illustrator 30.2.1, SVG Export Plug-In . SVG Version: 2.1.1 Build 1)  -->
  <path d="M3461.5,3932.1c58.4,73.7,114.2,149.4,167.4,227,46.9,72.9,84,151.6,110.4,234.1,17.8,65,14.2,235.9-7.1,327.6-16,68.6-58.8,158.5-89,187-24,23.1-80.1,31.2-101.5,15.1-10.7-8.9-17.8-31.2-24-71.2-11.6-99.2-40.5-195.7-85.5-284.9-40.1-84.6-129.1-226.1-154.9-245.7l-1753.9-2021-133.5-138c-19.6,0-44.5,41.8-74.8,127.3-115.6,323.7-174.3,665-173.6,1008.7-.9,160.3,5.3,206.5,40.1,298.3,47.3,93.4,103.7,182,168.3,264.4l145.1,179.8c61.2,76.6,114.8,158.9,160.3,245.7,46,80.7,69.4,172.4,67.7,265.3-.8,56.1-12.9,111.6-35.6,162.9-44.5,90.8-127.3,151.4-262.6,192.3-102.4,30.3-183.4,35.6-519,35.6h-314.3c-10.7-1.8-24.9-8.9-35.6-20.5-17.8-17.8-31.2-57-4.5-89,19.6-22.3,24.9-24,131.8-30.3l178.1-24c289.3-71.2,306.3-243.9,69.4-708.7l-151.4-325c-47.2-114.8-69.3-238.3-65-362.4-2-117.6,9.9-235.1,35.6-349.9,77.5-329.4,252-690,329.4-819.1,12.1-18.7,23.1-38,32.9-57.9,16.1-28.6,33.3-56.5,51.6-83.7,21.2-29.8,38.5-62.1,51.6-96.2,0-16-15.1-49.9-24.9-57.9-2.7-2.7-162-197.6-174.5-211.9-249.3-282.2-400.6-496.8-455.8-648.1-40.5-154.4-31.2-317.7,26.7-466.5,37.4-78.3,65.9-106.8,106.8-113.1,26.7-3.6,39.2-.9,49.9,8.9,15.1,15.1,16,17.8,32.1,115.7,12.4,86.5,38.9,170.4,78.3,248.4,52.7,101.1,116.9,195.9,191.4,282.2,5.3,6.2,32.1,35.6,57.9,66.8l1606.1,1850c131.8,155.8,135.3,158.5,153.1,136.2,8.9-12.5,14.2-35.6,35.6-192.3l202.1-1285.6c7.8-39.6,9.3-80.1,4.5-120.2-4.5-15.1-44.5-64.1-96.2-117.5-160.3-165.6-231.5-258.2-282.2-365-34.6-70.4-49.9-148.8-44.5-227,0-179.8,29.4-291.1,95.3-360.6,31.2-32.9,44.5-41,67.7-41,32.9,0,66.8,29.4,75.7,65.9,12.5,53.4,64.1,144.2,244.8,438.9l142.4,210.1c69.4,75.3,141.9,147.8,217.2,217.2l81.9,86.4,35.6,44.5c7.8,9.6,14.9,19.7,21.4,30.3,58.9,84.9,90.1,186,89,289.3,8.9,213.7-51.6,393.5-145.1,431.8-21.4,8.9-28.5,8.9-47.2-4.5-26.7-17.8-33.8-35.6-41.8-99.7-20.3-120.4-70.2-233.9-145.1-330.3-56.1-71.2-75.7-60.5-91.7,55.2l-215.5,1399.6c-4.5,122-.9,153.1,17.8,172.7l377.5,446.9ZM4055.3,4551.8c0-234.1,32.9-420.2,133.5-560.9,100.6-138.9,234.1-210.1,396.2-210.1s295.6,71.2,396.2,211c100.6,139.8,133.5,327.6,133.5,560.9s-32.9,416.7-133.5,558.2c-86.6,134.3-236.4,214.4-396.2,211.9-162.9,0-295.6-71.2-396.2-211-100.6-139.8-133.5-327.6-133.5-560.9v.9ZM4248.5,4551.8c0,311.6,29.4,507.5,89,592,55.1,82.5,149.2,130.4,248.4,126.4,110.2,8.5,214.2-51.6,261.7-151.4,49.9-100.6,74.8-290.2,74.8-568s-29.4-509.3-89-592.9c-55-81.6-148.2-129.1-246.6-125.5-105.1,0-187,41.8-247.5,124.6-59.7,83.7-89,281.3-89,592.9"/>
</svg>