<?xml version="1.0" encoding="UTF-8"?>
<svg id="Layer_1" xmlns="http://www.w3.org/2000/svg" version="1.1" viewBox="0 0 500 500">
  <!-- Generator: Adobe Illustrator 30.2.1, SVG Export Plug-In . SVG Version: 2.1.1 Build 1)  -->
  <defs>
    <style>
      .st0 {
        fill: none;
        stroke: #000;
        stroke-width: 5.7px;
      }
    </style>
  </defs>
  <path class="st0" d="M263.2,263.2h0s0,0,0,0h0s0,0,0,0h0s0,0,0,0h0s0,0,0,0h0s0,0,0,0h0c0-.1,0-.1,0-.1h0s0,0,0,0h0s0,0,0,0h0s0,0,0,0h0s0,0,0,0h0s0,0,0,0h0s0,0,0,0h0s0,0,0,0h0s0,0,0,0h0s0,0,0,0h0s0,0,0,0h0s0,0,0,0h0s0,0,0,0h0s0,0,0,0h0s0,0,0,0h0s0,0,0,0h0s0,0,0,0h0s0,0,0,0h0s0,0,0,0h0s0,0,0,0h0s0,0,0,0h0s0,0,0,0h-.2s0,0,0,0h0s0,0,0,0h0s0,0,0,0h0s0,0,0,0h0s0,0,0,0h0s0,0,0,0h0s0,0,0,0h0s0,0,0,0h0s0,0,0,0h0s0,0,0,0h0s0,0,0,0h0s0,0,0,0h0s0,0,0,0h0s0,0,0,0h0s0,0,0,0h0s0,0,0,0h0s0,0,0,0h0s0,0,0,0h0s0,0,0,0h0s0,0,0,0h0s0,0,0,0h0s0,0,0,0h0s0,0,0,0h0s0,0,0,0h0s0,0,0,0h0s0,0,0,0h0s0,0,0,0h0s0,0,0,0h0s0,0,0,0h0s0,0,0,0h0s0,0,0,0h0s0,0,0,0h0s0,0,0,0h0s0,0,0,0h0s0,0,0,0h0s0,0,0,0h0s0,0,0,0h0s0,0,0,0h0s0,0,0,0h0s0,0,0,0h0s0,0,0,0h0s0,0,0,0h0c0,0,0,0,0,0h0c0,0,0,0,0,0h0v.2h0c0,.1,0,.2,0,.2h0c0,0,0,0,0,0h0s0,0,0,0h0s0,0,0,0h0s0,0,0,0h0s0,0,0,0h0s0,0,0,0h0s0,0,0,0h0s0,0,0,0h0s0,0,0,0h0s0,0,0,0h0s0,0,0,0h0s0,0,0,0h0s0,0,0,0h0s0,0,0,0h0s0,0,0,0h0s0,0,0,0h0s0,0,0,0h0s0,0,0,0h0s0,0,0,0h0s0,0,0,0h0s0,0,0,0h0s0,0,0,0h0s0,0,0,0h0s0,0,0,0h0s0,0,0,0h0s0,0,0,0h0s0,0,0,0h0s0,0,0,0h0s0,0,0,0h0s0,0,0,0h0s0,0,0,0h0s0,0,0,0h0s0,0,0,0h0s0,0,0,0h0s0,0,0,0h0s0,0,0,0h0s0,0,0,0h0s0,0,0,0h0s0,0,0,0h0s0,0,0,0h0s0,0,0,0h0s0,0,0,0h0s0,0,0,0h0s0,0,0,0h0s0,0,0,0h0s0,0,0,0h0s0,0,0,0h0s0,0,0,0h0s0,0,0,0h0s0,0,0,0h0s0,0,0,0h0s0,0,0,0h0s0,0,0,0h0s0,0,0,0h0s0,0,0,0h0s0,0,0,0h0s0,0,0,0h0s0,0,0,0h0s0,0,0,0h0s0,0,0,0h.5s0,0,0,0h0s0,0,0,0h0s0,0,0,0h0s0,0,0,0h0s0,0,0,0h0s0,0,0,0h0s0,0,0,0h0s0,0,0,0h0s0,0,0,0h0s0,0,0,0h0s0,0,0,0h0s0,0,0,0h0s0,0,0,0h0s0,0,0,0h0s0,0,0,0h0s0,0,0,0h0s0,0,0,0h0s0,0,0,0h0s0,0,0,0h0s0,0,0,0h0s0,0,0,0h0s0,0,0,0h0s0,0,0,0h0s0,0,0,0h0s0,0,0,0h0s0,0,0,0h0s0,0,0,0h0s0,0,0,0h0s0,0,0,0h0s0,0,0,0h0s0,0,0,0h0s0,0,0,0h0s0,0,0,0h0s0,0,0,0h0s0,0,0,0h0s0,0,0,0h0s0,0,0,0h0s0,0,0,0h0s0,0,0,0h0s0,0,0,0h0s0,0,0,0h0s0,0,0,0h0s0,0,0,0h0s0,0,0,0h0s0,0,0,0h0s0,0,0,0h0s0,0,0,0h0s0,0,0,0h0s0,0,0,0h0s0,0,0,0h0s0,0,0,0h0s0,0,0,0h0s0,0,0,0h0s0,0,0,0h0s0,0,0,0h0s0,0,0,0h0s0,0,0,0h0s0,0,0,0h0c0,0,0-.1,0-.1h0s0,0,0,0h0c0,0,0-.1,0-.1h0c0,0,0-.1,0-.1h0s0-.1,0-.1h0c0-.1,0-.1,0-.1h0s0-.1,0-.1h0c0,0,0-.1,0-.1h0c0-.1,0-.1,0-.1h0v-.2h0v-.2h0c0-.1,0-.2,0-.2h0c0-.1,0-.2,0-.2h0c0,0,0-.1,0-.1h0c0,0,0-.1,0-.1h0s0-.1,0-.1h0c0,0,0-.1,0-.1h0s0-.1,0-.1h0c0,0,0-.1,0-.1h0c0,0,0-.1,0-.1h0c0,0,0-.1,0-.1h0c0,0,0-.1,0-.1h0c0,0,0-.1,0-.1h0c0,0,0-.1,0-.1h0c0,0,0-.1,0-.1h0c0,0,0-.1,0-.1h0c0,0,0-.1,0-.1h0c0,0,0-.1,0-.1h0s0-.1,0-.1h0s0-.1,0-.1h0c0,0,0-.1,0-.1h0c0,0,0-.1,0-.1h0c0,0,0-.1,0-.1h0c0,0,0-.1,0-.1h0c0,0,0-.1,0-.1h0s0,0,0,0h0c0,0,0-.1,0-.1h0s0-.1,0-.1h0s0,0,0,0h0c0,0,0-.1,0-.1h0c0,0,0-.1,0-.1h0s0-.1,0-.1h0s0-.1,0-.1h0s0,0,0,0h0c0,0,0,0,0,0h0s0,0,0,0h0s0,0,0,0h0s0,0,0,0h0s0,0,0,0h0s0,0,0,0h0s0,0,0,0h0c0,0,0,0,0,0h0s0,0,0,0h0s0,0,0,0h0s0,0,0,0h0s0,0,0,0h0s0,0,0,0h0s0,0,0,0h0s0,0,0,0h0s0,0,0,0h0s0,0,0,0h0s0,0,0,0h0s0,0,0,0h0s0,0,0,0h0s0,0,0,0h0s0,0,0,0h0s0,0,0,0h0s0,0,0,0h0s0,0,0,0h0s0,0,0,0h0s0,0,0,0h0s0,0,0,0h0s0,0,0,0h0s0,0,0,0h0s0,0,0,0h0s0,0,0,0h0s0,0,0,0h0s0,0,0,0h0s0,0,0,0h0s0,0,0,0h0s0,0,0,0h0s0,0,0,0h0s0,0,0,0h-.7s0,0,0,0h0s0,0,0,0h0s0,0,0,0h0s0,0,0,0h0s0,0,0,0h0s0,0,0,0h0s0,0,0,0h0s0,0,0,0h0s0,0,0,0h0s0,0,0,0h0s0,0,0,0h0s0,0,0,0h0s0,0,0,0h0s0,0,0,0h0s0,0,0,0h0s0,0,0,0h0s0,0,0,0h0s0,0,0,0h0s0,0,0,0h0s0,0,0,0h0s0,0,0,0h0s0,0,0,0h0s0,0,0,0h0s0,0,0,0h0s0,0,0,0h0c0,0,0,0,0,0h0c0,0,0,.1,0,.1h0s0,.1,0,.1h0s0,.1,0,.1h0c0,0,0,.1,0,.1h0s0,.1,0,.1h0c0,0,0,.1,0,.1h0c0,0,0,.1,0,.1h0c0,0,0,.1,0,.1h0c0,0,0,.1,0,.1h0c0,0,0,.1,0,.1h0c0,0,0,.1,0,.1h0c0,0,0,.1,0,.1h0c0,0,0,.1,0,.1h0c0,0,0,.1,0,.1h0c0,0,0,.2,0,.2h0c0,0,0,.1,0,.1h0c0,0,0,.1,0,.1h0c0,0,0,.2,0,.2h0c0,0,0,.2,0,.2h0c0,0,0,.2,0,.2h0c0,0,0,.2,0,.2h0c0,0,0,.2,0,.2h0c0,0,0,.2,0,.2h0c0,0,0,.2,0,.2h0c0,0,0,.2,0,.2h0c0,0,0,.2,0,.2h0c0,0,0,.2,0,.2h0c0,0,0,.2,0,.2h0c0,0,0,.2,0,.2h0c0,.1,0,.2,0,.2h0c0,0,0,.2,0,.2h0c0,0,0,.2,0,.2h0c0,.1,0,.2,0,.2h0c0,0,0,.2,0,.2h0c0,.1,0,.2,0,.2h0c0,.1,0,.2,0,.2h0c0,0,0,.2,0,.2h0c0,.1,0,.2,0,.2h0c0,.1,0,.2,0,.2h0c0,.1,0,.2,0,.2h0c0,.1,0,.2,0,.2h0c0,.1,0,.2,0,.2h0c0,.1,0,.2,0,.2h0c0,0,0,.2,0,.2h0v.2h0c0,.1,0,.2,0,.2h0c0,.1,0,.2,0,.2h0v.2h0v.2h0v.2h0v.2h0c0,.1,0,.2,0,.2h0c0,.1,0,.2,0,.2h0c0,.1,0,.2,0,.2h0c0,.1,0,.2,0,.2h0c0,.1,0,.2,0,.2h0c0,.1,0,.2,0,.2h0c0,.1,0,.2,0,.2h0c0,.1,0,.2,0,.2h0c0,.1,0,.2,0,.2h0c0,.1,0,.2,0,.2h0c0,.1,0,.2,0,.2h0c0,.1,0,.2,0,.2h0c0,.1,0,.2,0,.2h0c0,.1,0,.2,0,.2h0c0,.1,0,.2,0,.2h0c0,.1,0,.2,0,.2h0c0,.1,0,.2,0,.2h0c0,.1,0,.2,0,.2h0c0,.1,0,.2,0,.2h0c0,.1,0,.2,0,.2h0c0,.1,0,.2,0,.2h0c0,.1,0,.2,0,.2h0c0,.1,0,.2,0,.2h0c0,.1,0,.2,0,.2h0c0,0,0,.2,0,.2h0c0,.1,0,.2,0,.2h0c0,.1,0,.2,0,.2h0c0,.1,0,.2,0,.2h0c0,.1,0,.2,0,.2h0c0,.1,0,.2,0,.2h0c0,.1,0,.2,0,.2h0c0,.1,0,.2,0,.2h0c0,0,0,.2,0,.2h0c0,.1,0,.2,0,.2h0c0,0,0,.2,0,.2h0c0,0,0,.2,0,.2h0c0,0,.1.2.1.2h0c0,0,0,.2,0,.2h.1c0,0,.1.2.1.2h.1c0,0,0,.2,0,.2h.1c0,0,.1.2.1.2h.1c0,0,.1.2.1.2h.1c0,0,.1.2.1.2h.1c0,0,.1.2.1.2h.1c0,0,.1.2.1.2h.1c0,0,.1.1.1.1h.1c0,0,.1.1.1.1h.1c0,0,.1.1.1.1h.1c0,0,.1.1.1.1h.1c0,0,.1.1.1.1h.1c0,0,.1.1.1.1h.1c0,0,.1.1.1.1h.1c0,0,.1.1.1.1h.1c0,0,.1.1.1.1h.1c0,0,.1.1.1.1h.1c0,0,.1.1.1.1h.1s.1.1.1.1h.1s.1,0,.1,0h.1s.1,0,.1,0h.1s.1,0,.1,0h.1s.1,0,.1,0h.1s.1,0,.1,0h.1s.1,0,.1,0h.1s.1,0,.1,0h.1s.1,0,.1,0h.1s.1,0,.1,0h.1s.1,0,.1,0h.1s.1,0,.1,0h.1s.1,0,.1,0h.1s.1,0,.1,0h.1s.1,0,.1,0h.1s.1,0,.1,0h.1s.1,0,.1,0h.1s.1,0,.1,0h.6s.1,0,.1,0h.1s.1,0,.1,0h.3s.1,0,.1,0h.1s.1,0,.1,0h.2s.1,0,.1,0h.1s.2,0,.2,0h.1s.1,0,.1,0h.2s.1,0,.1,0h.1s.1,0,.1,0h.1s.2,0,.2,0h.1s.1,0,.1,0h.1s.1,0,.1,0h.2s.1,0,.1,0h.1s.1,0,.1,0h.1s.1,0,.1,0h.1c0,0,.1-.1.1-.1h.1s.1-.1.1-.1h.1c0,0,.1-.1.1-.1h.2c0,0,.1-.1.1-.1h.1c0,0,.1-.1.1-.1h.1c0,0,.1-.1.1-.1h.1c0,0,.1-.1.1-.1h.1c0,0,.1-.1.1-.1h.1c0,0,.1-.2.1-.2h.1c0,0,.1-.2.1-.2h.1c0,0,.1-.2.1-.2h.1c0,0,.1-.2.1-.2h.1c0,0,.1-.2.1-.2h.1c0,0,.1-.2.1-.2h.1c0-.1.1-.2.1-.2h.1c0-.1.1-.2.1-.2h.1c0-.1.1-.2.1-.2h.1c0-.1.1-.2.1-.2h.1c0-.1.1-.2.1-.2h.1c0-.1.1-.2.1-.2h.1c0-.1.1-.2.1-.2h.1c0-.1.1-.2.1-.2h.1c0-.1.1-.2.1-.2h.1c0-.1.1-.2.1-.2h.1c0-.1.1-.3.1-.3h.1c0-.1.1-.2.1-.2h.1c0-.1.1-.3.1-.3h.1c0-.1.1-.3.1-.3h.1c0-.1.1-.3.1-.3h.1c0-.1.1-.3.1-.3h0c0-.1.1-.3.1-.3h0c0-.1.1-.3.1-.3h.1c0-.1,0-.3,0-.3h.1c0-.1,0-.3,0-.3v-.2c0,0,.2-.2.2-.2v-.2c0,0,.2-.1.2-.1v-.2c0,0,.2-.1.2-.1v-.2c0,0,.2-.2.2-.2v-.2c0,0,.2-.2.2-.2v-.2c0,0,.2-.2.2-.2v-.2c0,0,.1-.2.1-.2v-.2c0,0,.1-.2.1-.2v-.2c0,0,.1-.2.1-.2v-.2c0,0,.1-.2.1-.2v-.2c0,0,.1-.2.1-.2v-.2c0,0,.1-.2.1-.2v-.2s0-.2,0-.2v-.2c0,0,.1-.2.1-.2v-.2c0,0,.1-.2.1-.2v-.2s0-.2,0-.2v-.2s0-.2,0-.2v-.2s0-.2,0-.2v-.2s0-.2,0-.2v-.2s0-.2,0-.2v-.2s0-.2,0-.2v-.2s0-.2,0-.2v-.2s0-.2,0-.2v-.2s0-.2,0-.2v-.2s0-.2,0-.2v-.2s0-.2,0-.2v-.2s0-.2,0-.2v-.6s0-.2,0-.2v-.2s0-.2,0-.2v-.2s0-.2,0-.2v-.2s0-.2,0-.2v-.2s0-.2,0-.2v-.2s0-.2,0-.2v-.2s0-.2,0-.2v-.2s0-.2,0-.2v-.2s0-.2,0-.2v-.2s0-.2,0-.2v-.2s0-.2,0-.2v-.2s0-.2,0-.2v-.2c0,0-.1-.2-.1-.2v-.2s-.1-.2-.1-.2v-.2c0,0-.1-.2-.1-.2v-.2c0,0-.1-.2-.1-.2v-.2c0,0-.1-.2-.1-.2v-.2c0,0-.1-.2-.1-.2v-.2c0,0-.2-.2-.2-.2v-.2c0,0-.2-.2-.2-.2v-.2c0,0-.2-.2-.2-.2v-.2c0,0-.2-.2-.2-.2v-.2c0,0-.2-.2-.2-.2v-.2c0,0-.2-.2-.2-.2v-.2c-.1,0-.2-.2-.2-.2v-.2c-.1,0-.2-.2-.2-.2v-.2c-.1,0-.2-.2-.2-.2v-.2c-.1,0-.2-.2-.2-.2v-.2c-.1,0-.2-.2-.2-.2v-.2c-.1,0-.2-.2-.2-.2v-.2c-.1,0-.2-.2-.2-.2v-.2c-.1,0-.3-.2-.3-.2v-.2c-.1,0-.3-.2-.3-.2v-.2c-.1,0-.3-.2-.3-.2v-.2c-.1,0-.3-.2-.3-.2v-.2c-.1,0-.3-.2-.3-.2h-.1c0-.1-.1-.3-.1-.3l-.2-.2v-.2c-.1,0-.3-.2-.3-.2h-.2c0-.1-.2-.3-.2-.3h-.2c0-.1-.2-.3-.2-.3h-.2c0-.1-.2-.3-.2-.3h-.2c0-.1-.2-.3-.2-.3h-.2c0-.1-.2-.3-.2-.3h-.2c0-.1-.2-.3-.2-.3h-.2c0-.1-.2-.3-.2-.3h-.2c0-.1-.2-.3-.2-.3h-.2c0-.1-.2-.2-.2-.2h-.2c0-.1-.2-.2-.2-.2h-.2c0-.1-.2-.2-.2-.2h-.2c0-.1-.2-.2-.2-.2h-.2c0-.1-.2-.2-.2-.2h-.2c0-.1-.2-.2-.2-.2h-.2c0-.1-.2-.2-.2-.2h-.2c0-.1-.2-.2-.2-.2h-.2c0,0-.2-.2-.2-.2h-.2c0,0-.2-.2-.2-.2h-.2c0,0-.2-.2-.2-.2h-.2c0,0-.2-.2-.2-.2h-.2c0,0-.2-.2-.2-.2h-.2c0,0-.2-.2-.2-.2h-.2c0,0-.2-.1-.2-.1h-.2c0,0-.2-.1-.2-.1h-.2c0,0-.2-.1-.2-.1h-.2c0,0-.2-.1-.2-.1h-.2c0,0-.2-.1-.2-.1h-.2c0,0-.2-.1-.2-.1h-.2c0,0-.2,0-.2,0h-.2s-.2,0-.2,0h-.2s-.2,0-.2,0h-.2s-.2,0-.2,0h-.2s-.2,0-.2,0h-.2s-.2,0-.2,0h-.2s-.2,0-.2,0h-.2s-.2,0-.2,0h-.2s-.2,0-.2,0h-.2s-.2,0-.2,0h-.7s-.2,0-.2,0h-.2s-.2,0-.2,0h-.2s-.2,0-.2,0h-.2s-.2,0-.2,0h-.2s-.2,0-.2,0h-.2s-.2,0-.2,0h-.2s-.2,0-.2,0h-.2s-.2,0-.2,0h-.2c0,0-.2,0-.2,0h-.2c0,0-.2.1-.2.1h-.2c0,0-.2.1-.2.1h-.2c0,0-.2.1-.2.1h-.2c0,0-.2.1-.2.1h-.2c0,0-.2.1-.2.1h-.2c0,0-.2.2-.2.2h-.2c0,0-.2.2-.2.2h-.2c0,0-.2.2-.2.2h-.2c0,0-.2.2-.2.2h-.2c0,0-.2.2-.2.2h-.2c0,.1-.2.2-.2.2h-.2c0,.1-.2.2-.2.2h-.2c0,.1-.2.2-.2.2h-.2c0,.1-.2.2-.2.2h-.2c0,.1-.2.2-.2.2h-.2c0,.1-.2.2-.2.2h-.2c0,.1-.2.3-.2.3h-.2c0,.1-.2.3-.2.3h-.2c0,.1-.2.3-.2.3h-.2c0,.1-.2.3-.2.3h-.2c0,.1-.2.3-.2.3l-.2.2h-.2c0,.1-.2.3-.2.3l-.2.2-.2.2-.2.2-.2.2-.2.2-.2.2-.2.2-.2.2-.2.2-.2.2-.2.2-.2.2-.2.2-.2.2-.2.2-.2.2-.2.2-.2.2-.2.2-.2.2-.2.2-.2.2-.2.2-.2.2-.2.2-.2.2-.2.2-.2.2-.2.2-.2.2-.2.2-.2.2-.2.2v.2c-.1,0-.3.2-.3.2l-.2.2v.2c-.1,0-.3.2-.3.2v.2c-.1,0-.3.2-.3.2v.2c-.1,0-.3.2-.3.2v.2c-.1,0-.3.2-.3.2v.2c-.1,0-.2.2-.2.2v.2c-.1,0-.2.2-.2.2v.2c-.1,0-.2.3-.2.3v.3c-.1,0-.2.3-.2.3v.3c-.1,0-.2.3-.2.3v.3c0,0-.2.3-.2.3v.3c-.1,0-.2.3-.2.3v.3c0,0-.2.3-.2.3v.3c0,0-.2.3-.2.3v.3c0,0-.2.3-.2.3v.3c0,0-.1.3-.1.3v.3c0,0-.1.3-.1.3v.3c0,0-.1.3-.1.3v.3c0,0-.1.3-.1.3v.3c0,0-.1.3-.1.3v.3s0,.3,0,.3v.3s0,.3,0,.3v.3s0,.3,0,.3v.3s0,.3,0,.3v.3s0,.3,0,.3v.3s0,.3,0,.3v.3s0,.3,0,.3v.6s0,.3,0,.3v.9s0,.3,0,.3v.3s0,.3,0,.3v.3s0,.3,0,.3v.3s0,.3,0,.3v.3s0,.3,0,.3v.3s0,.3,0,.3v.3s0,.3,0,.3v.3s0,.3,0,.3v.3c0,0,.1.3.1.3v.3c0,0,.1.3.1.3v.3c0,0,.1.3.1.3v.3c0,0,.1.3.1.3v.3c0,0,.2.3.2.3v.3c0,0,.2.3.2.3v.3c0,0,.2.3.2.3v.3c0,0,.2.3.2.3v.3c.1,0,.2.3.2.3v.3c.1,0,.2.3.2.3v.3c.1,0,.2.3.2.3v.3c.1,0,.2.3.2.3v.3c.1,0,.3.3.3.3v.3c.1,0,.3.3.3.3v.3c.1,0,.3.3.3.3v.3c.1,0,.3.3.3.3l.2.3.2.3.2.3.2.3.2.3.2.3.2.3.2.3.2.3.2.3.2.3.2.3.2.2.2.3.2.3.2.2.2.2.2.2.2.2.2.2.2.2.2.2.2.2.2.2.2.2.2.2.2.2.2.2.2.2.2.2.2.2.2.2.2.2.2.2.2.2.2.2.2.2.2.2.2.2.3.2.3.2.3.2.3.2.3.2.3.2.3.2.3.2.3.2.3.2.3.2.3.2.3.2.3.2.3.2.3.2.3.2.3.2.3.2.3.2h.3c0,.1.3.3.3.3h.3c0,.1.3.3.3.3h.3c0,.1.3.3.3.3h.3c0,.1.3.3.3.3h.3c0,.1.3.3.3.3h.3c0,.1.3.2.3.2h.3c0,.1.3.2.3.2h.3c0,.1.3.2.3.2h.3c0,.1.3.2.3.2h.3c0,.1.3.2.3.2h.3c0,0,.3.2.3.2h.3c0,0,.3.2.3.2h.3c0,0,.3.2.3.2h.3c0,0,.4.1.4.1h.3c0,0,.3.1.3.1h.4c0,0,.3.1.3.1h.4c0,0,.3,0,.3,0h.4c0,0,.4,0,.4,0h.3s.4,0,.4,0h.4s.4,0,.4,0h.4s.4,0,.4,0h.4s.4,0,.4,0h.4s.4,0,.4,0h1.1s.4,0,.4,0h.4s.4,0,.4,0h.4s.3,0,.3,0h.4s.4,0,.4,0h.4s.4,0,.4,0h.4s.4,0,.4,0h.4s.4,0,.4,0h.4c0,0,.4-.1.4-.1h.4c0,0,.4-.1.4-.1h.4c0,0,.4-.1.4-.1h.4c0,0,.4-.1.4-.1h.4c0,0,.3-.2.3-.2h.4c0,0,.4-.2.4-.2h.3c0,0,.4-.2.4-.2h.4c0-.1.4-.2.4-.2h.3c0-.1.4-.2.4-.2h.4c0-.1.4-.2.4-.2h.4c0-.1.3-.3.3-.3h.3c0-.1.3-.3.3-.3h.3c0-.1.3-.3.3-.3h.3c0-.1.3-.3.3-.3l.3-.2.3-.2.3-.2.3-.2.3-.2.3-.2.3-.2.3-.2.3-.2.3-.2.3-.2.3-.2.3-.2.3-.2.3-.2.3-.2.3-.2.3-.2.3-.2.3-.2.3-.2.3-.2.3-.2.3-.2.3-.2.3-.2.3-.2.3-.2.3-.2.3-.3.3-.3.3-.3.3-.3.3-.3.3-.3.3-.3.3-.3.3-.3.3-.3.3-.3.3-.3.3-.3.3-.3.2-.3.2-.3.2-.3.2-.3.2-.3.2-.3.2-.3.2-.3.2-.3.2-.3.2-.3.2-.3.2-.3.2-.3.2-.3.2-.3.2-.4.2-.3.2-.4.2-.3.2-.4.2-.4.2-.4.2-.4.2-.4.2-.4.2-.4.2-.4.2-.4.2-.4.2-.4.2-.4.2-.4v-.4c.1,0,.3-.4.3-.4v-.4c.1,0,.3-.4.3-.4v-.4c.1,0,.3-.4.3-.4v-.4c.1,0,.2-.4.2-.4v-.4c.1,0,.2-.4.2-.4v-.4c.1,0,.2-.4.2-.4v-.4c.1,0,.2-.4.2-.4v-.4c.1,0,.2-.4.2-.4v-.4c0,0,.2-.4.2-.4v-.4c0,0,.1-.4.1-.4v-.4c0,0,.1-.4.1-.4v-.4c0,0,.1-.4.1-.4v-.4s.1-.4.1-.4v-.4s0-.4,0-.4v-.4s0-.4,0-.4v-.4s0-.4,0-.4v-.4s0-.4,0-.4v-.4s0-.4,0-.4v-.4s0-.4,0-.4v-.4s0-.4,0-.4v-.4s0-.4,0-.4v-.4s0-.4,0-.4v-.4s0-.4,0-.4v-.4s0-.4,0-.4v-.4s-.1-.4-.1-.4v-.4c0,0-.1-.4-.1-.4v-.4c0,0-.1-.4-.1-.4v-.4c0,0-.1-.4-.1-.4v-.4c0,0-.2-.4-.2-.4v-.4c0,0-.2-.4-.2-.4v-.4c0,0-.2-.4-.2-.4v-.4c-.1,0-.2-.4-.2-.4v-.4c-.1,0-.2-.4-.2-.4v-.4c-.1,0-.3-.4-.3-.4v-.4c-.1,0-.3-.4-.3-.4v-.4c-.1,0-.3-.4-.3-.4v-.4c-.1,0-.3-.4-.3-.4l-.2-.4-.2-.4-.2-.4-.2-.4-.2-.4-.2-.4-.2-.4-.2-.4-.2-.4-.2-.4-.2-.4-.2-.4-.2-.4-.2-.4-.2-.4-.2-.4-.2-.4-.2-.4-.2-.4-.2-.4-.2-.4-.2-.4-.2-.4-.3-.4-.3-.4-.3-.4-.3-.4-.3-.4-.3-.4-.3-.4-.3-.4-.3-.3-.3-.4-.3-.4-.3-.3-.3-.3-.3-.3-.3-.3-.3-.3-.3-.3-.3-.3-.3-.3-.3-.3-.3-.3-.3-.3-.3-.3-.3-.3-.4-.3-.3-.3-.4-.3-.3-.3-.4-.3-.4-.3-.4-.3-.4-.3-.4-.3-.4-.3-.4-.3-.4-.3-.4-.3-.4-.3-.4-.3-.4-.3-.4-.2-.4-.2-.4-.2-.4-.2-.4-.2-.4-.2-.4-.2-.4-.2-.4-.2-.4-.2-.4-.2-.4-.2-.4-.2-.4-.2-.4-.2-.4-.2-.4-.2-.4-.2-.5-.2-.4-.2-.4-.2-.4-.2-.5-.2-.5-.2-.5-.2h-.5c0-.1-.5-.3-.5-.3h-.5c0-.1-.5-.3-.5-.3h-.5c0-.1-.5-.2-.5-.2h-.5c0-.1-.5-.2-.5-.2h-.5c0-.1-.5-.2-.5-.2h-.5c0,0-.5-.2-.5-.2h-.5c0-.1-.5-.2-.5-.2h-.5c0,0-.5-.2-.5-.2h-.5c0,0-.5-.1-.5-.1h-.5c0,0-.5-.1-.5-.1h-.5c0,0-.5-.1-.5-.1h-.5c0,0-.5,0-.5,0h-.5s-.5,0-.5,0h-.5s-.5,0-.5,0h-.5s-.5,0-.5,0h-1s-.5,0-.5,0h-.5s-.5,0-.5,0h-.5s-.5,0-.5,0h-.5s-.5,0-.5,0h-.5s-.5,0-.5,0h-.5c0,0-.5.1-.5.1h-.5c0,0-.5.1-.5.1h-.5c0,0-.5.2-.5.2h-.5c0,0-.5.2-.5.2h-.5c0,0-.5.2-.5.2h-.5c0,0-.5.2-.5.2h-.5c0,.1-.5.2-.5.2h-.5c0,.1-.5.2-.5.2h-.5c0,.1-.5.3-.5.3h-.5c0,.1-.5.3-.5.3h-.5c0,.1-.5.3-.5.3l-.5.2-.5.2-.5.2-.5.2-.5.2-.5.2-.5.2-.5.2-.5.2-.5.2-.5.2-.5.2-.5.2-.5.2-.5.2-.5.2-.5.2-.5.2-.5.2-.5.2-.4.3-.4.3-.4.3-.4.3-.4.3-.4.3-.4.3-.4.3-.4.3-.4.3-.4.3-.4.3-.4.3-.4.3-.4.3-.4.3-.4.3-.4.3-.4.3-.4.4-.4.3-.4.4-.4.4-.4.4-.4.4-.4.4-.4.4-.4.4-.4.4-.4.4-.4.4-.4.4-.3.4-.4.4-.4.4-.3.4-.4.4-.3.4-.3.4-.3.4-.3.4-.3.4-.3.4-.3.5-.3.4-.3.5-.3.4-.3.4-.3.5-.3.5-.3.5-.3.5-.3.5-.3.5-.3.5-.3.5-.3.5-.2.5-.2.5-.2.5-.2.5-.2.5-.2.5-.2.5-.2.5-.2.5-.2.5-.2.5-.2.5-.2.5-.2.5-.2.5-.2.5-.2.5-.2.5-.2.5-.2.5-.2.5v.5c-.1,0-.3.5-.3.5v.5c-.1,0-.3.5-.3.5v.6c-.1,0-.2.5-.2.5v.6c-.1,0-.2.5-.2.5v.5c0,0-.2.6-.2.6v.6c0,0-.2.6-.2.6v.6c0,0-.2.6-.2.6v.6c0,0-.1.6-.1.6v.6c0,0-.1.6-.1.6v.6c0,0,0,.6,0,.6v.6s0,.6,0,.6v.6s0,.6,0,.6v.6s0,.6,0,.6v.6s0,.6,0,.6v.6s0,.6,0,.6v.6s0,.6,0,.6v.6s0,.6,0,.6v.6s0,.6,0,.6v.6c0,0,.1.6.1.6v.6c0,0,.1.6.1.6v.6c0,0,.2.6.2.6v.6c0,0,.2.6.2.6v.6c.1,0,.2.6.2.6v.6c.1,0,.2.6.2.6v.6c.1,0,.3.6.3.6v.6c.1,0,.3.6.3.6l.2.6.2.6v.6c.1,0,.3.6.3.6l.2.6.2.6.2.6.2.6.2.6.2.6.2.5.2.6.2.6.2.5.2.5.2.5.2.5.2.5.3.5.2.5.3.5.3.5.3.5.3.5.3.5.3.5.3.5.3.5.3.5.3.5.3.5.3.5.3.5.3.5.3.5.3.5.4.5.3.5.4.5.4.5.4.5.4.5.4.5.4.5.4.5.4.5.4.5.4.5.4.5.4.4.4.5.4.4.4.4.4.4.4.4.4.4.5.4.4.4.5.4.5.4.5.4.5.4.5.4.5.4.5.4.5.4.5.4.5.4.5.4.5.4.5.4.5.3.5.4.5.3.5.3.5.3.5.3.5.3.5.3.5.3.5.3.6.3.6.3.6.3.6.3.6.3.6.3.6.3.6.3.6.3.6.2.6.2.6.2.6.2.6.2.6.2.6.2.6.2.6.2.6.2.6.2.6.2.6.2.6.2.6.2.6.2.6.2.6.2h.6c0,.1.6.3.6.3h.6c0,.1.6.3.6.3h.6c0,.1.6.2.6.2h.6c0,.1.6.2.6.2h.6c0,0,.6.2.6.2h.6c0,0,.6.2.6.2h.6c0,0,.6.1.6.1h.6c0,0,.6.1.6.1h.6s.7,0,.7,0h.7s.6,0,.6,0h.6s.7,0,.7,0h.6s.7,0,.7,0h1.3s.7,0,.7,0h.7s.7,0,.7,0h.7s.7,0,.7,0h.7c0,0,.7-.1.7-.1h.7c0,0,.7-.1.7-.1h.7c0,0,.7-.2.7-.2h.6c0,0,.7-.2.7-.2h.7c0-.1.6-.2.6-.2h.7c0-.1.6-.2.6-.2h.7c0-.1.6-.3.6-.3h.6c0-.1.7-.3.7-.3l.7-.2.6-.2.6-.2.6-.2.7-.2.6-.2.6-.2.6-.2.6-.2.6-.2.6-.2.6-.2.6-.2.6-.2.6-.2.6-.3.6-.3.6-.3.6-.3.6-.3.6-.3.6-.3.6-.3.6-.3.6-.3.6-.3.6-.3.6-.3.6-.3.6-.3.6-.4.6-.4.6-.4.6-.4.6-.4.6-.4.6-.4.6-.4.6-.4.6-.4.6-.4.6-.4.5-.4.5-.4.5-.4.5-.4.5-.5.5-.5.5-.5.5-.5.5-.5.5-.5.5-.5.5-.5.5-.5.5-.5.5-.5.5-.5.5-.5.5-.5.5-.5.5-.5.5-.5.4-.5.5-.6.4-.5.4-.5.4-.6.4-.6.4-.6.4-.6.4-.6.4-.6.4-.6.4-.6.4-.6.4-.6.4-.6.4-.6.4-.6.4-.6.4-.6.3-.6.4-.6.3-.6.3-.6.3-.6.3-.6.3-.6.3-.6.3-.7.3-.7.3-.7.3-.7.3-.7.3-.7.3-.7.2-.7.2-.7.2-.7.2-.7.2-.7.2-.7.2-.7.2-.7.2-.7.2-.7.2-.7.2-.7.2-.7.2-.7v-.7c.1,0,.3-.7.3-.7v-.7c.1,0,.3-.7.3-.7v-.7c.1,0,.2-.7.2-.7v-.7c.1,0,.2-.7.2-.7v-.7c.1,0,.2-.7.2-.7v-.7c0,0,.2-.7.2-.7v-.7c0,0,.1-.7.1-.7v-.7c0,0,.1-.7.1-.7v-.7s0-.7,0-.7v-.8s0-.7,0-.7v-.7s0-.8,0-.8v-1.5s0-.8,0-.8v-.8s0-.7,0-.7v-.8s0-.8,0-.8v-.8s-.1-.8-.1-.8v-.7c0,0-.2-.8-.2-.8v-.8c0,0-.2-.8-.2-.8v-.7c-.1,0-.2-.8-.2-.8v-.8c-.1,0-.2-.7-.2-.7v-.8c-.1,0-.3-.7-.3-.7v-.7c-.1,0-.3-.7-.3-.7l-.2-.8-.2-.7-.2-.7-.2-.7-.2-.7-.2-.7-.2-.7-.2-.7-.2-.7-.2-.7-.2-.7-.2-.7-.2-.7-.3-.7-.3-.7-.3-.7-.3-.7-.3-.7-.3-.7-.3-.7-.3-.7-.3-.7-.3-.7-.3-.7-.3-.7-.4-.7-.3-.7-.4-.7-.4-.7-.4-.7-.4-.7-.4-.7-.4-.7-.4-.7-.4-.7-.4-.7-.4-.7-.4-.7-.4-.6-.4-.6-.4-.6-.5-.6-.5-.6-.5-.6-.5-.6-.5-.6-.5-.6-.5-.6-.5-.6-.5-.6-.5-.6-.5-.6-.5-.6-.5-.6-.5-.6-.5-.6-.6-.6-.6-.6-.6-.6-.6-.6-.6-.5-.6-.5-.6-.5-.6-.5-.6-.5-.6-.5-.6-.5-.6-.5-.6-.5-.6-.5-.6-.5-.6-.5-.6-.5-.7-.5-.6-.5-.7-.5-.7-.4-.7-.4-.7-.4-.7-.4-.7-.4-.7-.4-.7-.4-.7-.4-.7-.4-.7-.4-.7-.4-.7-.4-.7-.4-.7-.4-.7-.4-.7-.3-.7-.4-.7-.3-.8-.3-.8-.3-.8-.3-.8-.3-.8-.3-.8-.3-.8-.3-.8-.3-.8-.3-.8-.3-.8-.3-.8-.2-.8-.2-.8-.2-.8-.2-.8-.2-.8-.2-.8-.2-.8-.2-.8-.2-.8-.2-.8-.2-.8-.2h-.8c0-.1-.8-.3-.8-.3h-.8c0-.1-.8-.3-.8-.3h-.8c0-.1-.8-.2-.8-.2h-.8c0-.1-.8-.2-.8-.2h-.8c0,0-.8-.2-.8-.2h-.8c0,0-.8-.1-.8-.1h-.8c0,0-.8-.1-.8-.1h-.8s-.8,0-.8,0h-.8s-.8,0-.8,0h-.8s-.8,0-.8,0h-.8s-.9,0-.9,0h-.8s-.8,0-.8,0h-.8c0,0-.8.1-.8.1h-.8c0,0-.8.1-.8.1h-.8c0,0-.8.2-.8.2h-.8c0,0-.8.2-.8.2h-.9c0,.1-.8.2-.8.2h-.8c0,.1-.8.3-.8.3h-.8c0,.1-.8.3-.8.3l-.8.2-.8.2-.8.2-.8.2-.8.2-.8.2-.8.2-.8.2-.8.2-.8.2-.8.3-.8.3-.8.3-.8.3-.8.3-.8.3-.8.3-.8.3-.8.3-.8.3-.8.3-.8.3-.8.4-.8.4-.8.4-.8.4-.8.4-.8.4-.8.4-.8.4-.8.4-.8.4-.8.4-.8.4-.8.4-.8.5-.7.5-.7.5-.7.5-.7.5-.7.5-.7.5-.7.5-.7.5-.7.5-.7.5-.7.6-.7.5-.7.6-.7.6-.7.6-.7.6-.7.6-.7.6-.6.6-.6.6-.7.6-.6.6-.6.6-.6.6-.6.6-.6.7-.6.6-.6.7-.6.7-.6.7-.6.7-.6.7-.6.7-.6.7-.6.7-.6.7-.5.7-.5.7-.5.7-.5.7-.5.7-.5.8-.5.8-.5.8-.5.8-.5.8-.5.8-.5.8-.5.8-.5.8-.4.8-.4.8-.4.8-.4.8-.4.8-.4.8-.4.8-.4.8-.4.8-.4.8-.4.8-.4.8-.4.9-.3.9-.3.8-.3.9-.3.9-.3.9-.3.9-.3.9-.3.9-.3.9-.3.9-.3.9-.2.9-.2.9-.2.9-.2.9-.2.9-.2.9-.2.9-.2.9-.2.9-.2.9-.2.9-.2.9v.9c-.1,0-.3.9-.3.9v.9c-.1,0-.2.9-.2.9v.9c0,0-.2.9-.2.9v.9c0,0-.1.9-.1.9v.9c0,0-.1.9-.1.9v.9s0,.9,0,.9v.9s0,.9,0,.9v.9s0,.9,0,.9v.9s0,.9,0,.9v.9s0,1,0,1v.9c0,0,0,.9,0,.9v.9c0,0,.2.9.2.9v1c0,0,.2.9.2.9v.9c.1,0,.2.9.2.9v.9c.1,0,.2.9.2.9l.2.9v.9c.1,0,.3.9.3.9l.2.9.2.9.2.9.2.9.2.9.2.9.2.9.2.9.2.9.2.9.3.9.3.9.3.9.3.9.3.9.3.9.3.9.3.9.3.9.4.9.4.9.4.9.4.9.4.9.4.9.4.9.4.9.4.9.4.9.4.9.5.9.5.9.5.9.5.9.5.9.5.8.5.8.5.8.5.8.5.8.5.8.5.8.6.8.6.8.6.8.6.8.6.8.6.8.6.8.6.8.6.8.6.8.6.8.6.8.7.7.7.7.7.7.7.7.7.7.7.7.7.7.7.7.7.7.7.7.7.7.7.7.7.7.8.7.8.6.8.6.8.6.8.6.8.6.8.6.8.6.8.6.8.6.8.6.8.6.8.6.8.5.9.6.8.5.9.5.9.5.9.5.9.5.9.5.9.5.9.5.9.5.9.5.9.5.9.5.9.4.9.4.9.4.9.4.9.4.9.4.9.4.9.4.9.4,1,.4,1,.3,1,.3,1,.3,1,.3,1,.3,1,.3,1,.3,1,.3,1,.3,1,.3,1,.2,1,.2,1,.2,1,.2,1,.2,1,.2,1,.2,1,.2,1,.2,1,.2h1c0,.1,1,.3,1,.3h1c0,.1,1,.3,1,.3h1c0,.1,1,.2,1,.2h1c0,0,1,.2,1,.2h1.1c0,0,1,.1,1,.1h1c0,0,1,0,1,0h1s1.1,0,1.1,0h1s1,0,1,0h1.1s1,0,1,0h1.1s1,0,1,0h1c0,0,1.1-.1,1.1-.1h1c0,0,1.1-.2,1.1-.2h1.1c0-.1,1-.2,1-.2h1c0-.1,1.1-.2,1.1-.2h1c0-.1,1-.3,1-.3l1-.2,1.1-.2,1-.2,1-.2,1.1-.2,1-.2,1-.2,1-.2,1-.2,1-.2,1-.3,1-.3,1-.3,1-.3,1-.3,1-.3,1-.3,1-.3,1-.4,1-.4,1-.4,1-.4,1-.4,1-.4,1-.4,1-.4,1-.4,1-.5,1-.4,1-.5,1-.5,1-.5,1-.5,1-.5,1-.5,1-.5.9-.5.9-.5.9-.6.9-.6.9-.6.9-.6.9-.6.9-.6.9-.6.9-.6.9-.6.9-.6.9-.7.9-.6.9-.7.9-.7.9-.7.9-.7.8-.7.8-.7.8-.7.8-.7.8-.7.8-.7.8-.8.8-.8.8-.8.8-.8.8-.8.8-.8.8-.8.8-.8.7-.8.7-.8.7-.8.7-.8.7-.9.7-.9.7-.9.7-.9.7-.9.7-.9.7-.9.6-.9.6-.9.6-.9.6-.9.6-.9.6-.9.6-.9.6-1,.6-1,.6-1,.6-1,.6-1,.5-1,.5-1,.5-1,.5-1,.5-1,.5-1,.5-1,.5-1,.5-1,.5-1,.4-1,.4-1,.4-1,.4-1.1.4-1.1.4-1.1.4-1.1.4-1.1.4-1.1.4-1.1.3-1.1.3-1.1.3-1.1.3-1.1.3-1.1.3-1.1.3-1.1.3-1.1.2-1.1.2-1.1.2-1.1.2-1.1.2-1.1.2-1.1.2-1.1.2-1.1.2-1.1.2-1.1v-1.1c.1,0,.3-1.1.3-1.1v-1.1c.1,0,.2-1.1.2-1.1v-1.2c.1,0,.2-1.1.2-1.1v-1.1c0,0,.1-1.2.1-1.2v-1.1c0,0,.1-1.2.1-1.2v-1.2s0-1.2,0-1.2v-1.2s0-1.2,0-1.2v-1.2s0-1.2,0-1.2v-1.2s0-1.2,0-1.2v-1.2c0,0-.1-1.2-.1-1.2v-1.2c0,0-.2-1.2-.2-1.2v-1.2c-.1,0-.2-1.2-.2-1.2v-1.2c-.1,0-.3-1.2-.3-1.2l-.2-1.2-.2-1.2-.2-1.2-.2-1.2-.2-1.1-.2-1.2-.2-1.1-.2-1.2-.2-1.1-.3-1.1-.3-1.2-.3-1.1-.3-1.1-.3-1.1-.3-1.1-.3-1.1-.4-1.1-.4-1.1-.4-1.1-.4-1.1-.4-1.1-.4-1.1-.4-1.1-.4-1.1-.4-1.1-.4-1.1-.5-1.1-.5-1.1-.5-1.1-.5-1.1-.5-1.1-.5-1.1-.5-1.1-.5-1.1-.6-1.1-.6-1.1-.6-1-.6-1.1-.6-1-.6-1-.6-1-.6-1-.6-1-.6-1-.7-1-.7-1-.7-1-.7-1-.7-1-.7-1-.7-1-.7-1-.7-1-.8-.9-.8-.9-.8-.9-.8-.9-.8-.9-.8-.9-.8-.9-.8-.9-.8-.9-.8-.9-.8-.9-.9-.9-.9-.9-.9-.9-.9-.8-.9-.8-.9-.8-.9-.8-.9-.8-.9-.8-.9-.8-.9-.8-.9-.8-1-.8-1-.8-1-.8-1-.7-1-.7-1-.7-1-.7-1-.7-1-.7-1-.7-1-.7-1.1-.7-1-.6-1.1-.6-1.1-.6-1.1-.6-1.1-.6-1.1-.6-1.1-.6-1.1-.6-1.1-.6-1.1-.6-1.1-.5-1.1-.5-1.1-.5-1.1-.5-1.1-.5-1.1-.5-1.1-.5-1.2-.5-1.2-.4-1.2-.4-1.2-.4-1.2-.4-1.2-.4-1.2-.4-1.2-.4-1.2-.4-1.2-.4-1.2-.4-1.2-.3-1.2-.3-1.2-.3-1.2-.3-1.2-.3-1.2-.3-1.2-.3-1.2-.3-1.2-.2-1.2-.2-1.2-.2-1.2-.2-1.3-.2-1.2-.2-1.3-.2-1.3-.2h-1.3c0-.1-1.3-.3-1.3-.3h-1.3c0-.1-1.3-.2-1.3-.2h-1.3c0,0-1.3-.2-1.3-.2h-1.3c0,0-1.3-.1-1.3-.1h-1.3s-1.3,0-1.3,0h-1.3s-1.3,0-1.3,0h-1.3s-1.3,0-1.3,0h-1.3s-1.3,0-1.3,0h-1.3c0,0-1.3.1-1.3.1h-1.3c0,0-1.3.2-1.3.2h-1.3c0,.1-1.3.2-1.3.2h-1.3c0,.1-1.3.3-1.3.3l-1.3.2-1.3.2-1.3.2-1.3.2-1.3.2-1.3.2-1.3.2-1.3.3-1.3.3-1.3.3-1.3.3-1.3.3-1.3.3-1.3.3-1.2.3-1.2.4-1.2.4-1.2.4-1.2.4-1.2.4-1.2.4-1.2.4-1.2.4-1.2.5-1.2.5-1.2.5-1.2.5-1.2.5-1.2.5-1.2.5-1.2.6-1.2.6-1.2.6-1.2.6-1.2.6-1.2.6-1.2.6-1.2.6-1.1.6-1.2.6-1.1.7-1.1.7-1.1.7-1.1.7-1.1.7-1.1.7-1.1.7-1.1.8-1.1.8-1.1.8-1.1.8-1.1.8-1.1.8-1.1.8-1,.8-1,.8-1,.8-1,.9-1,.9-1,.9-1,.9-1,.9-1,.9-1,.9-1,.9-.9.9-.9.9-.9,1-.9,1-.9,1-.9,1-.9,1-.9,1-.9,1-.9,1-.9,1-.9,1-.8,1.1-.8,1.1-.8,1.1-.8,1.1-.8,1.1-.8,1.1-.8,1.1-.8,1.1-.8,1.1-.8,1.1-.7,1.1-.7,1.1-.7,1.2-.7,1.2-.7,1.2-.7,1.2-.7,1.2-.7,1.2-.6,1.2-.6,1.2-.6,1.2-.6,1.2-.6,1.2-.6,1.2-.6,1.2-.6,1.2-.5,1.3-.5,1.3-.5,1.3-.5,1.3-.5,1.3-.5,1.3-.5,1.3-.5,1.3-.4,1.3-.4,1.3-.4,1.3-.4,1.3-.4,1.3-.4,1.3-.4,1.3-.4,1.3-.3,1.3-.3,1.4-.3,1.3-.3,1.4-.3,1.4-.3,1.4-.3,1.4-.2,1.4-.2,1.4-.2,1.4-.2,1.4-.2,1.4-.2,1.4-.2,1.4-.2,1.4v1.4c-.1,0-.3,1.4-.3,1.4v1.4c-.1,0-.2,1.4-.2,1.4v1.4c0,0-.2,1.4-.2,1.4v1.4c0,0,0,1.4,0,1.4v1.4s0,1.4,0,1.4v2.8s0,1.4,0,1.4v1.4s0,1.4,0,1.4v1.4c0,0,.2,1.4.2,1.4v1.4c0,0,.2,1.4.2,1.4v1.4c.1,0,.3,1.4.3,1.4l.2,1.4.2,1.4.2,1.4.2,1.4.2,1.4.2,1.4.2,1.4.2,1.4.3,1.4.3,1.4.3,1.4.3,1.4.3,1.4.3,1.4.3,1.4.4,1.4.4,1.4.4,1.4.4,1.4.4,1.4.4,1.4.4,1.4.5,1.3.5,1.4.5,1.4.5,1.3.5,1.3.5,1.3.6,1.3.6,1.3.6,1.3.6,1.3.6,1.3.6,1.3.6,1.3.6,1.3.7,1.3.7,1.3.7,1.3.7,1.3.7,1.3.7,1.2.7,1.2.8,1.2.8,1.2.8,1.2.8,1.2.8,1.2.8,1.2.8,1.2.8,1.2.8,1.2.9,1.2.9,1.2.9,1.2.9,1.2.9,1.1.9,1.1.9,1.1.9,1.1,1,1.1,1,1.1,1,1.1,1,1.1,1,1.1,1,1.1,1,1,1,1,1,1,1.1,1,1.1,1,1.1,1,1.1,1,1.1,1,1.1,1,1.1,1,1.1,1,1.1.9,1.1.9,1.2.9,1.2.9,1.2.9,1.2.9,1.2.9,1.2.9,1.2.8,1.2.8,1.2.8,1.2.8,1.2.8,1.3.8,1.3.8,1.3.8,1.3.8,1.3.7,1.3.7,1.3.7,1.3.7,1.3.7,1.3.7,1.3.7,1.3.6,1.4.6,1.4.6,1.4.6,1.4.6,1.4.6,1.4.6,1.4.6,1.4.5,1.4.5,1.4.5,1.4.5,1.4.5,1.4.5,1.4.5,1.4.4,1.4.4,1.5.4,1.5.4,1.5.4,1.5.4,1.5.4,1.5.3,1.5.3,1.5.3,1.5.3,1.5.3,1.5.3,1.5.3,1.5.2,1.5.2,1.5.2,1.5.2,1.5.2,1.5.2h1.5c0,.1,1.5.3,1.5.3h1.5c0,.1,1.5.2,1.5.2h1.5c0,0,1.5.2,1.5.2h1.5c0,0,1.5.1,1.5.1h1.5s1.5,0,1.5,0h3.1s1.5,0,1.5,0h1.5s1.5-.1,1.5-.1h1.5c0,0,1.5-.2,1.5-.2h1.5c0-.1,1.5-.2,1.5-.2h1.5c0-.1,1.5-.3,1.5-.3l1.5-.2,1.5-.2,1.5-.2,1.5-.2,1.5-.2,1.5-.2,1.5-.3,1.5-.3,1.5-.3,1.5-.3,1.5-.3,1.5-.3,1.5-.4,1.5-.4,1.5-.4,1.5-.4,1.5-.4,1.5-.4,1.5-.5,1.5-.5,1.5-.5,1.5-.5,1.5-.5,1.5-.5,1.5-.5,1.5-.5,1.5-.6,1.4-.6,1.5-.6,1.4-.6,1.4-.6,1.4-.6,1.4-.7,1.4-.7,1.4-.7,1.4-.7,1.4-.7,1.4-.7,1.4-.8,1.4-.8,1.4-.8,1.4-.8,1.4-.8,1.4-.8,1.4-.8,1.3-.9,1.3-.9,1.3-.9,1.3-.9,1.3-.9,1.3-.9,1.3-.9,1.3-.9,1.3-1,1.3-1,1.2-1,1.2-1,1.2-1,1.2-1,1.2-1,1.2-1,1.2-1,1.2-1.1,1.2-1.1,1.2-1.1,1.1-1.1,1.1-1.1,1.1-1.1,1.1-1.1,1.1-1.2,1.1-1.2,1.1-1.2,1.1-1.2,1.1-1.2,1.1-1.2,1-1.2,1-1.2,1-1.2,1-1.2,1-1.3,1-1.3,1-1.3,1-1.3.9-1.3.9-1.3.9-1.3.9-1.3.9-1.4.9-1.4.9-1.4.9-1.4.8-1.4.8-1.4.8-1.4.8-1.4.8-1.4.8-1.4.8-1.4.8-1.4.7-1.5.7-1.5.7-1.5.7-1.5.7-1.5.7-1.5.7-1.5.6-1.5.6-1.5.6-1.5.6-1.5.6-1.5.6-1.5.5-1.5.5-1.6.5-1.6.5-1.6.5-1.6.5-1.6.5-1.6.4-1.6.4-1.6.4-1.6.4-1.6.4-1.6.4-1.6.3-1.6.3-1.6.3-1.6.3-1.6.3-1.6.3-1.6.2-1.6.2-1.6.2-1.6.2-1.6.2-1.7.2-1.7v-1.7c.1,0,.3-1.7.3-1.7v-1.7c.1,0,.2-1.7.2-1.7v-1.7c0,0,.1-1.7.1-1.7v-1.7s0-1.7,0-1.7v-1.7s0-1.7,0-1.7v-1.7s0-1.7,0-1.7v-1.7s-.1-1.7-.1-1.7v-1.7c0,0-.2-1.7-.2-1.7v-1.7c-.1,0-.3-1.7-.3-1.7l-.2-1.7-.2-1.7-.2-1.7-.2-1.7-.2-1.7-.2-1.7-.3-1.7-.3-1.7-.3-1.7-.3-1.7-.3-1.7-.3-1.6-.4-1.7-.4-1.6-.4-1.6-.4-1.6-.4-1.6-.5-1.6-.4-1.6-.5-1.6-.5-1.6-.5-1.6-.5-1.6-.5-1.6-.6-1.6-.6-1.6-.6-1.6-.6-1.6-.6-1.6-.6-1.6-.6-1.6-.7-1.6-.7-1.6-.7-1.6-.7-1.5-.7-1.5-.8-1.5-.8-1.5-.8-1.5-.8-1.5-.8-1.5-.8-1.5-.8-1.5-.9-1.5-.9-1.5-.9-1.5-.9-1.5-.9-1.5-.9-1.4-1-1.4-1-1.4-1-1.4-1-1.4-1-1.4-1-1.4-1-1.4-1-1.4-1.1-1.4-1.1-1.3-1.1-1.3-1.1-1.3-1.1-1.3-1.1-1.3-1.1-1.3-1.2-1.3-1.2-1.3-1.2-1.3-1.2-1.2-1.2-1.2-1.2-1.2-1.2-1.2-1.3-1.2-1.3-1.2-1.3-1.2-1.3-1.2-1.3-1.2-1.3-1.1-1.3-1.1-1.3-1.1-1.4-1.1-1.4-1.1-1.4-1.1-1.4-1.1-1.4-1.1-1.4-1-1.4-1-1.4-1-1.4-1-1.5-1-1.5-1-1.5-1-1.5-.9-1.5-.9-1.5-.9-1.5-.9-1.5-.9-1.5-.9-1.5-.9-1.5-.8-1.6-.8-1.6-.8-1.6-.8-1.6-.8-1.6-.8-1.6-.8-1.6-.7-1.6-.7-1.6-.7-1.6-.7-1.7-.7-1.6-.7-1.7-.6-1.7-.6-1.7-.6-1.7-.6-1.7-.6-1.7-.5-1.7-.5-1.7-.5-1.7-.5-1.7-.5-1.7-.5-1.7-.4-1.7-.4-1.7-.4-1.8-.4-1.8-.4-1.8-.4-1.8-.3-1.8-.3-1.8-.3-1.8-.3-1.8-.3-1.8-.3-1.8-.2-1.8-.2-1.8-.2-1.8-.2-1.8-.2-1.8-.2h-1.8c0-.1-1.8-.3-1.8-.3h-1.8c0,0-1.8-.2-1.8-.2h-1.8c0,0-1.8-.1-1.8-.1h-1.8s-1.8,0-1.8,0h-1.8s-1.8,0-1.8,0h-1.8c0,0-1.8.1-1.8.1h-1.8c0,0-1.8.2-1.8.2h-1.8c0,.1-1.8.2-1.8.2l-1.8.2-1.8.2-1.8.2-1.8.2-1.8.2-1.8.2-1.8.3-1.8.3-1.8.3-1.8.3-1.8.3-1.8.3-1.8.4-1.8.4-1.8.4-1.8.4-1.8.4-1.8.5-1.8.5-1.8.5-1.8.5-1.8.5-1.8.6-1.8.6-1.7.6-1.7.6-1.7.6-1.7.6-1.7.7-1.7.7-1.7.7-1.7.7-1.7.7-1.7.7-1.7.8-1.7.8-1.7.8-1.7.8-1.7.8-1.7.8-1.6.9-1.6.9-1.6.9-1.6.9-1.6.9-1.6,1-1.6,1-1.6,1-1.6,1-1.6,1-1.6,1-1.5,1.1-1.5,1.1-1.5,1.1-1.5,1.1-1.5,1.1-1.5,1.1-1.5,1.1-1.5,1.2-1.5,1.2-1.5,1.2-1.4,1.2-1.4,1.2-1.4,1.2-1.4,1.2-1.4,1.3-1.4,1.3-1.4,1.3-1.3,1.3-1.3,1.3-1.3,1.3-1.3,1.3-1.3,1.4-1.3,1.4-1.3,1.4-1.3,1.4-1.2,1.4-1.2,1.4-1.2,1.4-1.2,1.4-1.2,1.5-1.2,1.5-1.2,1.5-1.2,1.5-1.2,1.5-1.1,1.5-1.1,1.5-1.1,1.6-1.1,1.6-1.1,1.6-1.1,1.6-1,1.6-1,1.6-1,1.6-1,1.6-1,1.6-1,1.7-.9,1.7-.9,1.7-.9,1.7-.9,1.7-.9,1.7-.9,1.7-.8,1.7-.8,1.7-.8,1.7-.8,1.8-.8,1.8-.8,1.8-.7,1.8-.7,1.8-.7,1.8-.7,1.8-.7,1.8-.6,1.8-.6,1.8-.6,1.8-.6,1.8-.6,1.8-.6,1.8-.6,1.9-.5,1.9-.5,1.9-.5,1.9-.5,1.9-.5,1.9-.4,1.9-.4,1.9-.4,1.9-.4,1.9-.4,1.9-.3,1.9-.3,1.9-.3,1.9-.3,1.9-.3,1.9-.2,1.9-.2,1.9-.2,1.9-.2,1.9-.2,1.9-.2,1.9v2c-.1,0-.2,1.9-.2,1.9v2c0,0-.2,2-.2,2v2c0,0,0,2,0,2v2s0,2,0,2v2s0,2,0,2v2c0,0,.2,2,.2,2v2c.1,0,.2,2,.2,2l.2,2,.2,2,.2,2,.2,1.9.2,2,.2,2,.3,2,.3,2,.3,1.9.3,1.9.3,2,.4,1.9.4,1.9.4,1.9.4,1.9.4,1.9.5,1.9.5,1.9.5,1.9.5,1.9.5,1.9.6,1.9.6,1.9.6,1.9.6,1.9.6,1.9.7,1.9.7,1.9.7,1.9.7,1.9.7,1.9.8,1.9.8,1.8.8,1.8.8,1.8.8,1.8.8,1.8.9,1.8.9,1.8.9,1.8.9,1.8.9,1.8,1,1.8,1,1.8,1,1.8,1,1.7,1,1.7,1,1.7,1.1,1.7,1.1,1.7,1.1,1.7,1.1,1.7,1.1,1.7,1.2,1.7,1.2,1.6,1.2,1.6,1.2,1.6,1.2,1.6,1.2,1.6,1.2,1.6,1.3,1.6,1.3,1.6,1.3,1.6,1.3,1.5,1.3,1.5,1.3,1.5,1.4,1.5,1.4,1.5,1.4,1.5,1.4,1.5,1.4,1.5,1.4,1.4,1.5,1.4,1.5,1.4,1.5,1.4,1.5,1.4,1.5,1.4,1.5,1.4,1.5,1.3,1.6,1.3,1.6,1.3,1.6,1.3,1.6,1.3,1.6,1.3,1.6,1.2,1.6,1.2,1.6,1.2,1.7,1.2,1.7,1.2,1.7,1.2,1.7,1.1,1.7,1.1,1.7,1.1,1.7,1.1,1.8,1.1,1.8,1.1,1.8,1.1,1.8,1,1.8,1,1.8,1,1.8,1,1.8,1,1.8.9,1.8.9,1.9.9,1.9.9,1.9.9,1.9.9,1.9.8,1.9.8,1.9.8,1.9.8,1.9.8,1.9.7,2,.7,2,.7,2,.7,2,.7,2,.7,2,.6,2,.6,2,.6,2,.6,2,.5,2,.5,2,.5,2,.5,2,.5,2.1.4,2,.4,2.1.4,2.1.4,2.1.4,2.1.3,2.1.3,2.1.3,2.1.3,2.1.3,2.1.2,2.1.2,2.1.2,2.1.2h2.1c0,.1,2.1.3,2.1.3h2.1c0,.1,2.1.2,2.1.2h2.1c0,0,2.1.1,2.1.1h2.1s2.1,0,2.1,0h2.1s2.1,0,2.1,0h2.1s2.1-.1,2.1-.1h2.1c0-.1,2.1-.2,2.1-.2h2.1c0-.1,2.1-.3,2.1-.3l2.1-.2,2.1-.2,2.1-.2,2.1-.2,2.1-.3,2.1-.3,2.1-.3,2.1-.3,2.1-.4,2.1-.4,2.1-.4,2.1-.4,2.1-.4,2.1-.5,2.1-.5,2.1-.5,2.1-.5,2.1-.5,2.1-.6,2.1-.6,2.1-.6,2-.6,2-.6,2-.7,2-.7,2-.7,2-.7,2-.8,2-.8,2-.8,2-.8,2-.8,2-.9,2-.9,2-.9,2-.9,1.9-.9,1.9-.9,1.9-1,1.9-1,1.9-1,1.9-1,1.9-1.1,1.9-1.1,1.9-1.1,1.9-1.1,1.8-1.1,1.8-1.1,1.8-1.2,1.8-1.2,1.8-1.2,1.8-1.2,1.8-1.2,1.8-1.3,1.8-1.3,1.7-1.3,1.7-1.3,1.7-1.3,1.7-1.4,1.7-1.4,1.7-1.4,1.7-1.4,1.7-1.4,1.6-1.4,1.6-1.5,1.6-1.5,1.6-1.5,1.6-1.5,1.6-1.5,1.6-1.5,1.5-1.6,1.5-1.6,1.5-1.6,1.5-1.6,1.5-1.6,1.5-1.6,1.4-1.6,1.4-1.7,1.4-1.7,1.4-1.7,1.4-1.7,1.4-1.7,1.4-1.7,1.3-1.8,1.3-1.8,1.3-1.8,1.3-1.8,1.3-1.8,1.2-1.8,1.2-1.8,1.2-1.9,1.2-1.9,1.2-1.9,1.2-1.9,1.1-1.9,1.1-1.9,1.1-1.9,1.1-1.9,1.1-1.9,1.1-2,1-2,1-2,1-2,1-2,1-2,.9-2,.9-2,.9-2,.9-2,.9-2.1.8-2.1.8-2.1.8-2.1.8-2.1.8-2.1.7-2.1.7-2.1.7-2.1.7-2.1.7-2.1.6-2.1.6-2.2.6-2.2.6-2.2.5-2.2.5-2.2.5-2.2.5-2.2.4-2.2.4-2.2.4-2.2.4-2.2.4-2.2.3-2.2.3-2.2.3-2.2.3-2.2.2-2.2.2-2.2.2-2.2.2-2.3.2-2.2v-2.3c.1,0,.3-2.3.3-2.3v-2.3c.1,0,.2-2.3.2-2.3v-2.3s0-2.3,0-2.3v-4.5s0-2.3,0-2.3v-2.3c0,0-.1-2.3-.1-2.3v-2.3c-.1,0-.2-2.3-.2-2.3l-.2-2.3-.2-2.3-.2-2.3-.2-2.3-.2-2.3-.3-2.3-.3-2.3-.3-2.3-.3-2.3-.4-2.3-.4-2.2-.4-2.3-.4-2.2-.4-2.2-.5-2.2-.5-2.2-.5-2.2-.5-2.2-.6-2.2-.6-2.2-.6-2.2-.6-2.2-.6-2.2-.7-2.2-.7-2.2-.7-2.2-.7-2.2-.8-2.2-.8-2.2-.8-2.2-.8-2.1-.9-2.2-.9-2.1-.9-2.1-.9-2.1-.9-2.1-1-2.1-1-2.1-1-2.1-1-2.1-1-2.1-1.1-2.1-1.1-2.1-1.1-2-1.1-2-1.1-2-1.2-2-1.2-2-1.2-2-1.2-2-1.2-2-1.3-2-1.3-1.9-1.3-1.9-1.3-1.9-1.3-1.9-1.4-1.9-1.4-1.9-1.4-1.9-1.4-1.8-1.4-1.8-1.5-1.8-1.5-1.8-1.5-1.8-1.5-1.8-1.5-1.8-1.6-1.8-1.6-1.7-1.6-1.7-1.6-1.7-1.6-1.7-1.7-1.7-1.7-1.7-1.7-1.6-1.7-1.6-1.7-1.6-1.7-1.6-1.8-1.6-1.8-1.6-1.8-1.5-1.8-1.5-1.8-1.5-1.8-1.5-1.9-1.5-1.9-1.4-1.9-1.4-1.9-1.4-1.9-1.4-1.9-1.4-1.9-1.4-2-1.3-2-1.3-2-1.3-2-1.3-2-1.3-2-1.2-2-1.2-2.1-1.2-2.1-1.2-2.1-1.2-2.1-1.1-2.1-1.1-2.1-1.1-2.1-1.1-2.1-1.1-2.1-1-2.1-1-2.2-1-2.2-1-2.2-1-2.2-.9-2.2-.9-2.2-.9-2.2-.9-2.2-.9-2.2-.8-2.3-.8-2.3-.8-2.3-.8-2.3-.7-2.3-.7-2.3-.7-2.3-.7-2.3-.6-2.3-.6-2.3-.6-2.3-.6-2.4-.5-2.3-.5-2.4-.5-2.4-.5-2.4-.5-2.4-.4-2.4-.4-2.4-.4-2.4-.4-2.4-.3-2.4-.3-2.4-.3-2.4-.3-2.4-.2-2.4-.2-2.4-.2-2.4-.2h-2.4c0-.1-2.4-.3-2.4-.3h-2.4c0-.1-2.4-.2-2.4-.2h-2.4s-2.4,0-2.4,0h-4.9s-2.4,0-2.4,0h-2.4c0,0-2.4.2-2.4.2h-2.4c0,.1-2.4.3-2.4.3l-2.4.2-2.4.2-2.4.2-2.4.2-2.4.3-2.4.3-2.4.3-2.4.3-2.4.4-2.4.4-2.4.4-2.4.4-2.4.5-2.4.5-2.4.5-2.4.5-2.4.6-2.4.6-2.4.6-2.4.6-2.4.6-2.4.7-2.4.7-2.4.7-2.4.8-2.3.8-2.3.8-2.3.8-2.3.8-2.3.9-2.3.9-2.3.9-2.3.9-2.3,1-2.3,1-2.3,1-2.2,1-2.2,1-2.2,1.1-2.2,1.1-2.2,1.1-2.2,1.2-2.2,1.2-2.2,1.2-2.2,1.2-2.2,1.2-2.1,1.2-2.1,1.3-2.1,1.3-2.1,1.3-2.1,1.3-2.1,1.4-2.1,1.4-2.1,1.4-2.1,1.4-2,1.5-2,1.5-2,1.5-2,1.5-2,1.5-2,1.6-1.9,1.6-1.9,1.6-1.9,1.6-1.9,1.6-1.9,1.7-1.9,1.7-1.8,1.7-1.9,1.7-1.8,1.7-1.8,1.8-1.8,1.8-1.8,1.8-1.8,1.8-1.7,1.8-1.7,1.8-1.7,1.9-1.7,1.9-1.7,1.9-1.7,1.9-1.6,1.9-1.6,1.9-1.6,2-1.6,2-1.6,2-1.5,2-1.5,2-1.5,2-1.5,2.1-1.5,2.1-1.4,2.1-1.4,2.1-1.4,2.1-1.4,2.1-1.4,2.1-1.3,2.2-1.3,2.2-1.3,2.2-1.3,2.2-1.2,2.2-1.2,2.2-1.2,2.2-1.2,2.3-1.2,2.3-1.1,2.3-1.1,2.3-1.1,2.3-1.1,2.3-1,2.3-1,2.4-1,2.4-1,2.4-1,2.4-.9,2.4-.9,2.4-.9,2.4-.9,2.4-.8,2.4-.8,2.4-.8,2.4-.8,2.4-.7,2.5-.7,2.5-.7,2.5-.7,2.5-.6,2.5-.6,2.5-.6,2.5-.6,2.5-.5,2.5-.5,2.5-.5,2.5-.5,2.5-.4,2.6-.4,2.6-.4,2.6-.4,2.6-.3,2.6-.3,2.6-.3,2.6-.3,2.6-.2,2.6-.2,2.6-.2,2.6-.2,2.6v2.6"/>
</svg>